<?xml version="1.0" encoding="utf-8"?>
<!-- Generator: Adobe Illustrator 22.0.1, SVG Export Plug-In . SVG Version: 6.00 Build 0)  -->
<svg version="1.1" id="圖層_1" xmlns="http://www.w3.org/2000/svg" xmlns:xlink="http://www.w3.org/1999/xlink" x="0px" y="0px"
	 viewBox="0 0 120 120" style="enable-background:new 0 0 120 120;" xml:space="preserve">
<style type="text/css">
	.st0{fill:#4EB2F1;}
	.st1{fill:#0077CB;}
	.st2{fill:#0378CC;}
	.st3{fill:#0177CB;}
	.st4{enable-background:new    ;}
	.st5{fill:#FFFFFF;}
</style>
<path class="st0" d="M106.4,120.2c-27.2,0-54.4,0-81.6,0c-0.2-0.1-0.3-0.2-0.5-0.2c-3.7-1.1-5.8-3.9-5.9-7.8c0-4.1,0-8.2,0-12.4
	c0.6,0,1.2,0,1.8,0c22.8,0,45.6,0,68.4,0c3.5,0,4.6-1,4.6-4.6c0-10.9,0-21.8,0-32.7c0-3.4-1-4.4-4.4-4.4c-22.9,0-45.7,0-68.6,0
	c-0.6,0-1.2,0-1.9-0.1c0-0.6,0-1.2,0-1.8c0-15.9,0-31.7,0-47.6c0-4.4,2.1-7.1,6.3-8.3c0.1,0,0.2-0.1,0.3-0.2c15.4,0,30.8,0,46.2,0
	c0,0.1,0,0.1,0,0.2C70.9,0.8,71,1.2,71,1.7c0,10.6,0,21.2,0,31.7c0,1.4,0.1,1.5,1.5,1.5c12.8,0,25.7,0,38.5,0c0.4,0,0.9,0.1,1.2-0.2
	c0.4,0.4,0.2,0.9,0.2,1.3c0.1,19.3,0.1,38.7,0.2,58c0,6.1,0,12.2,0,18.3c0,3.7-2.2,6.6-5.7,7.7C106.8,120,106.6,120.1,106.4,120.2z"
	/>
<path class="st1" d="M71.3,0.4c6.4,5.3,12.7,10.7,19.1,16c7.3,6.1,14.6,12.2,21.9,18.3c-0.4,0.4-0.8,0.2-1.2,0.2
	c-12.8,0-25.7,0-38.5,0c-1.4,0-1.6-0.1-1.5-1.5c0-10.6,0-21.2,0-31.7C71,1.2,70.9,0.8,71.3,0.4z"/>
<path class="st2" d="M49.3,79c0-1.3,0-2.6,0-4c0-0.5,0.1-0.7,0.7-0.8c3-0.2,4.4,1,4.5,4c0,0.9,0,1.9-0.1,2.8c-0.3,2-1.2,2.7-3.2,2.8
	c-2,0.1-2,0.1-2-1.8C49.3,81.1,49.3,80.1,49.3,79z"/>
<path class="st2" d="M35.5,79.2c-0.1,0.7-0.1,1.4-0.2,2.1c-0.4,1.9-1.6,2.9-3.6,2.8c-1.8,0-3-1.1-3.4-3c-0.3-1.4-0.3-2.7,0-4.1
	c0.4-1.8,1.6-2.9,3.4-3c1.9,0,3.3,1.1,3.6,3C35.5,77.8,35.5,78.6,35.5,79.2z"/>
<path class="st3" d="M93.3,62.5c0-3.4-1-4.4-4.4-4.4c-22.9,0-45.7,0-68.6,0c-0.6,0-1.2,0-1.9-0.1c-2.3,0-4.5,0-6.8,0
	c-2.8,0-3.9,1.1-3.9,3.9c0,11.3,0,22.7,0,34c0,2.7,1.2,3.8,3.9,3.9c2.3,0,4.6,0,6.9,0.1c0.6,0,1.2,0,1.8,0c22.8,0,45.6,0,68.4,0
	c3.5,0,4.6-1,4.6-4.6C93.3,84.3,93.3,73.4,93.3,62.5z"/>
<g class="st4">
	<path class="st5" d="M20,79.1c0-7.1,4-11.2,10-11.2c5.9,0,10,4.1,10,11.2c0,7.1-4,11.4-10,11.4C24,90.6,20,86.3,20,79.1z
		 M34.6,79.1c0-4.2-1.8-6.7-4.7-6.7s-4.6,2.5-4.6,6.7c0,4.2,1.8,6.9,4.6,6.9S34.6,83.4,34.6,79.1z"/>
	<path class="st5" d="M44,68.4h6.3c6.6,0,11,3.2,11,10.8s-4.4,11-10.7,11H44V68.4z M49.9,85.9c3.5,0,6-1.6,6-6.8s-2.5-6.6-6-6.6
		h-0.7v13.4H49.9z"/>
	<path class="st5" d="M68.6,72.7h-5.9v-4.3h17v4.3h-5.9v17.5h-5.2V72.7z"/>
</g>
</svg>
